<?xml version="1.0" standalone="no"?>
<!DOCTYPE svg PUBLIC "-//W3C//DTD SVG 20010904//EN"
 "http://www.w3.org/TR/2001/REC-SVG-20010904/DTD/svg10.dtd">
<svg version="1.0" xmlns="http://www.w3.org/2000/svg"
 width="1200.000000pt" height="600.000000pt" viewBox="0 0 1200.000000 600.000000"
 preserveAspectRatio="xMidYMid meet">

<g transform="translate(0.000000,600.000000) scale(0.100000,-0.100000)"
fill="#000000" stroke="none">
<path d="M4755 5129 c-261 -22 -457 -109 -620 -274 -97 -99 -166 -211 -210
-342 -65 -192 -65 -191 -65 -1515 0 -733 4 -1220 10 -1263 6 -38 13 -88 16
-110 10 -70 63 -218 103 -290 134 -239 361 -396 653 -452 86 -17 184 -18 1358
-18 1396 0 1344 -2 1528 63 262 93 461 297 552 567 59 174 60 201 60 1500 0
1231 -3 1316 -44 1460 -87 305 -297 526 -591 623 -186 62 -193 62 -1487 61
-645 -1 -1213 -5 -1263 -10z m2572 -849 c131 -78 246 -149 256 -157 9 -9 22
-33 28 -54 10 -32 9 -43 -7 -74 -16 -31 -55 -58 -264 -182 -260 -154 -296
-168 -347 -138 -58 34 -58 35 -61 355 -2 266 -1 298 15 330 21 41 76 73 115
66 14 -3 133 -69 265 -146z m-1684 -495 c85 -22 152 -60 215 -121 l56 -54 30
37 c41 50 137 109 214 133 189 59 413 -16 521 -173 32 -47 432 -880 452 -942
18 -56 16 -179 -4 -247 -39 -131 -159 -253 -294 -299 -175 -60 -398 -2 -505
132 l-31 38 -38 -43 c-118 -133 -328 -187 -502 -127 -72 25 -172 92 -208 140
l-22 30 -38 -43 c-48 -54 -117 -99 -195 -127 -81 -30 -225 -30 -306 -1 -167
60 -282 197 -308 368 -19 124 -7 160 225 640 113 236 222 452 241 481 36 52
111 116 171 147 89 45 224 58 326 31z"/>
<path d="M5442 3557 c-88 -32 -145 -117 -144 -214 0 -48 20 -94 202 -475 111
-233 214 -439 229 -458 87 -111 266 -115 356 -8 39 47 55 89 55 150 0 48 -18
91 -206 483 -125 259 -219 443 -238 464 -17 18 -49 42 -71 52 -46 21 -132 24
-183 6z"/>
<path d="M6212 3557 c-87 -32 -145 -117 -144 -213 0 -47 21 -96 202 -476 112
-233 215 -439 230 -458 44 -57 104 -85 180 -85 141 1 240 105 228 239 -4 41
-46 136 -213 484 -225 467 -235 484 -324 510 -48 15 -116 14 -159 -1z"/>
<path d="M5027 2842 c-127 -265 -134 -297 -94 -385 84 -183 332 -178 425 8 40
81 43 68 -90 346 -67 142 -125 259 -128 259 -3 0 -54 -103 -113 -228z"/>
</g>
</svg>
